<svg width="2500" height="2500" viewBox="0 0 2500 2500" fill="none" xmlns="http://www.w3.org/2000/svg">
<circle cx="1250" cy="1250" r="1250" fill="white"/>
<path d="M556.619 1543.31C544.917 1504.34 521.803 1486.9 502.379 1454.41C490.336 1434.27 477.896 1395 468.849 1372.28C428.31 1270.46 419.488 1176.54 422.557 1068.04C423.444 1036.68 421.185 978.189 426.218 947.725C436.175 887.465 454.463 822.635 472.967 764.496C483.211 732.309 492.152 698.296 504.372 666.945C519.137 629.058 543.34 597.528 557.902 559.148C561.686 549.179 578.6 522.281 589.206 521.246C622.425 518.003 628.629 547.629 644.896 565.191C655.584 576.732 671.83 588.251 682.826 599.56C701.723 622.403 730.71 637.781 751.198 656.706C788.587 691.24 826.64 712.672 870.36 738.252C888.514 748.875 906.628 765.495 925.442 775.573C946.098 786.636 969.317 794.991 990.081 806.011C1030.89 830.903 1071.14 850.143 1114.26 870.175C1138.02 881.214 1168.58 903.243 1191.91 917.589C1205.63 925.409 1224.81 935.65 1237.29 944.532C1241.2 947.388 1317.9 1014.84 1317.74 1014.47C1328.97 1041.6 1359.5 1068 1371.19 1090.66C1402.93 1152.22 1439.04 1222.58 1451.84 1291.37C1466.8 1409.63 1464.81 1536.69 1447.01 1654.13C1442.29 1685.32 1421.99 1726.33 1414.21 1757.6C1394.22 1816.65 1378.82 1873.97 1344.18 1926.31C1339.39 1933.54 1332.07 1953.08 1325.21 1957.64C1317.95 1945.37 1320.75 1866.62 1317.11 1844.71C1309.95 1801.64 1295.51 1757.16 1281.79 1715.5C1276.36 1700.39 1264.48 1682.82 1259.6 1668.13C1245.35 1625.16 1228.52 1591.22 1200.5 1555.42C1189.74 1541.68 1180.72 1520.64 1169.43 1506.1C1122.88 1446.19 1075.38 1387.21 1018.98 1336.29C1015.2 1332.87 1009.29 1329.52 1004.21 1330.27C1002.16 1340.62 1062.62 1426.62 1074.88 1440.09C1100.99 1468.79 1112.71 1497.42 1132.78 1528.58C1222.91 1668.55 1237.66 1813.78 1236.7 1976.53C1228.84 1975.31 1216.8 1973.69 1210.07 1969.51C1121.85 1914.78 1028.66 1868.13 936.903 1819.64C914.851 1807.99 893.961 1793.73 872.241 1781.87C842.406 1764.69 803.339 1751.24 776.099 1730.57C750.749 1711.33 727.77 1695.24 700.236 1678.9C689.104 1671.75 674.763 1654.9 663.947 1648.68C619.334 1623.02 597.207 1570 556.619 1543.31Z" fill="#0A3E0A"/>
<path d="M1659.35 1752.79C1584.43 1789.82 1545.69 1861.78 1500.14 1925.61C1497.44 1929.39 1494.5 1928.6 1490.64 1927.99C1479.72 1914.3 1492.96 1866.68 1494.51 1847.95C1499.7 1784.99 1510.86 1716.48 1533.76 1657.14C1543.07 1633.03 1584.9 1570.94 1605.18 1552.94C1619.18 1543.79 1650.77 1519.28 1665.48 1515.4C1689.61 1509.02 1730.6 1495.35 1754.23 1493.3C1814.76 1488.03 1868.13 1481.54 1926.85 1464.33C1967.45 1452.44 2013.19 1414.1 2049.55 1401.93C2062.95 1412.91 2072.5 1464.86 2074.08 1482.25C2079.26 1539.19 2081.65 1616.41 2066 1671.74C2057.48 1701.87 2017.2 1782.98 1998.34 1805.41C1916.88 1902.27 1778.5 1934.99 1660.95 1964.29C1647.53 1967.61 1589.3 1973.17 1583 1978C1578.75 1977.85 1559.97 1976.8 1556.92 1975.36C1537.18 1966.07 1568.94 1903.38 1574.92 1892.97C1593.07 1841.03 1621.94 1809.06 1663.38 1772.44C1684.22 1752.17 1707.01 1739.89 1728.37 1721.64C1702.1 1722.97 1679.41 1736.9 1659.35 1752.79Z" fill="#F9C10F"/>
<path d="M1659.35 1752.79C1679.41 1736.9 1702.1 1722.97 1728.37 1721.64C1707.01 1739.89 1684.22 1752.17 1663.38 1772.44C1658.06 1764.71 1658.58 1762.4 1659.35 1752.79Z" fill="#79B32D" fill-opacity="0.0117647"/>
</svg>
