<svg width="34" height="31" viewBox="0 0 34 31" fill="none" xmlns="http://www.w3.org/2000/svg">
<path d="M29.6995 1.5L23.5816 6.85327C21.1682 8.96486 19.9616 10.0207 18.6037 10.4222C17.4071 10.7761 16.1337 10.7761 14.9372 10.4222C13.5791 10.0207 12.3725 8.96486 9.95926 6.85326L3.84124 1.5M3.84124 1.5H10.3058M3.84124 1.5V7.96457M22.0062 18.5561L22.7698 24.1433C22.8763 24.947 22.9295 25.3489 23.0937 25.6936C23.2388 25.9988 23.4461 26.2701 23.7025 26.4904C23.9921 26.7393 24.3659 26.8962 25.1133 27.2101L26.2451 27.6852C27.3515 28.1497 27.9046 28.3819 28.4345 28.3645C28.9013 28.349 29.3538 28.199 29.7375 27.9325C30.1728 27.6299 30.4776 27.1133 31.0874 26.0799L32.027 24.487C22.9821 15.5748 10.4125 15.6674 1.5 24.7126L2.46356 26.2916C3.08846 27.3159 3.40091 27.8281 3.84071 28.124C4.22822 28.3848 4.68288 28.5282 5.14993 28.5368C5.67996 28.5464 6.22962 28.306 7.32892 27.8252L8.14866 27.4667C8.99612 27.0961 9.41985 26.9108 9.72972 26.615C10.0036 26.3537 10.2124 26.0317 10.3395 25.6752C10.4833 25.2717 10.4799 24.8093 10.4731 23.8844L10.4151 18.9556" stroke="#008000" stroke-width="3" stroke-linecap="round" stroke-linejoin="round"/>
</svg>
