<svg width="37" height="37" viewBox="0 0 37 37" fill="none" xmlns="http://www.w3.org/2000/svg">
<mask id="mask0_1_1360" style="mask-type:luminance" maskUnits="userSpaceOnUse" x="0" y="0" width="37" height="37">
<path d="M35.5498 0.5V35.5498H0.5V0.5H35.5498Z" fill="white" stroke="white"/>
</mask>
<g mask="url(#mask0_1_1360)">
<path d="M18.0251 1.62646C19.1875 1.62649 20.3225 1.74758 21.4177 1.97803C26.7856 3.10758 31.1846 6.86062 33.2136 11.8325C33.9937 13.7439 34.4226 15.8352 34.4226 18.0249C34.4226 19.1873 34.3016 20.3223 34.071 21.4175C32.7382 27.7518 27.752 32.7379 21.4177 34.0708C20.3226 34.3013 19.1875 34.4223 18.0251 34.4224C16.8628 34.4224 15.7277 34.3013 14.6326 34.0708C8.29819 32.738 3.31118 27.7519 1.97827 21.4175C1.74783 20.3223 1.62673 19.1873 1.62671 18.0249C1.62671 15.8335 2.0574 13.7403 2.83862 11.8276C4.86851 6.85815 9.26633 3.10719 14.6326 1.97803C15.7277 1.74762 16.8628 1.62646 18.0251 1.62646ZM22.1687 24.6558C20.7345 24.8612 19.3181 24.9907 18.0251 24.9907C16.7322 24.9907 15.3158 24.8612 13.8816 24.6558L13.1755 24.5552L13.321 25.2534C13.9562 28.3002 14.7676 31.0921 15.2078 32.5249L15.2986 32.8218L15.6052 32.8716C16.3925 32.9989 17.2012 33.0649 18.0251 33.0649C18.8489 33.0649 19.6568 32.9988 20.4441 32.8716L20.7507 32.8218L20.8425 32.5249C21.2825 31.0921 22.094 28.3002 22.7292 25.2534L22.8748 24.5552L22.1687 24.6558ZM3.90015 23.2046C5.41877 27.344 8.70597 30.6304 12.8455 32.1489L13.7712 32.4888L13.4978 31.5415C12.9907 29.7856 12.3204 27.2662 11.8113 24.6343L11.7468 24.3022L11.4158 24.2378L10.4353 24.0405C8.16578 23.5643 6.045 22.995 4.50854 22.5513L3.5603 22.2778L3.90015 23.2046ZM31.5417 22.5513C29.7859 23.0584 27.2664 23.7287 24.6345 24.2378L24.3025 24.3022L24.238 24.6343C23.729 27.2662 23.0586 29.7856 22.5515 31.5415L22.2781 32.4888L23.2048 32.1489C27.344 30.6303 30.6306 27.3438 32.1492 23.2046L32.489 22.2778L31.5417 22.5513ZM22.9187 15.1108C21.2315 15.3811 19.5434 15.56 18.0251 15.5601C16.5067 15.5601 14.8178 15.3811 13.1306 15.1108L12.6082 15.0269L12.5544 15.5532C12.4662 16.4154 12.4158 17.2483 12.4158 18.0249C12.4158 19.4731 12.591 21.1119 12.8601 22.7759L12.9177 23.1323L13.2732 23.1899C14.9372 23.4591 16.5769 23.6333 18.0251 23.6333C19.4733 23.6333 21.1122 23.459 22.7761 23.1899L23.1326 23.1323L23.1902 22.7759C23.4593 21.1119 23.6335 19.473 23.6335 18.0249C23.6335 17.2482 23.583 16.4154 23.4949 15.5532L23.4412 15.0269L22.9187 15.1108ZM3.71069 13.394C3.23934 14.8522 2.98413 16.4086 2.98413 18.0249C2.98415 18.8488 3.05123 19.6567 3.17847 20.4438L3.22729 20.7505L3.52515 20.8423C4.95811 21.2825 7.75008 22.0938 10.7966 22.729L11.4939 22.8745L11.3933 22.1685C11.1879 20.7342 11.0584 19.3178 11.0583 18.0249C11.0583 17.1394 11.1186 16.1971 11.2224 15.2329L11.2712 14.7798L10.825 14.689C8.31538 14.1783 5.95621 13.5425 4.32593 13.0679L3.86011 12.9321L3.71069 13.394ZM31.7234 13.0679C30.093 13.5425 27.734 14.1783 25.2244 14.689L24.7781 14.7798L24.8269 15.2329C24.9308 16.1971 24.991 17.1394 24.991 18.0249C24.9909 19.3179 24.8615 20.7342 24.656 22.1685L24.5554 22.8745L25.2537 22.729C28.3005 22.0938 31.0923 21.2825 32.5251 20.8423L32.822 20.7505L32.8718 20.4438C32.9991 19.6567 33.0652 18.8487 33.0652 18.0249C33.0652 16.4085 32.81 14.8523 32.3386 13.394L32.1892 12.9321L31.7234 13.0679ZM18.0251 2.98389C17.2012 2.98389 16.3925 3.05097 15.6052 3.17822L15.2986 3.22705L15.2078 3.5249C14.6538 5.32822 13.5125 9.28212 12.8738 13.186L12.7927 13.6812L13.2878 13.7603C14.9458 14.0279 16.58 14.2017 18.0251 14.2017C19.4703 14.2016 21.1044 14.0279 22.7625 13.7603L23.2566 13.6812L23.1755 13.186C22.5368 9.28226 21.3965 5.32828 20.8425 3.5249L20.7507 3.22705L20.4441 3.17822L19.8494 3.09424C19.2516 3.02198 18.6429 2.9839 18.0251 2.98389ZM12.8455 3.8999C9.29718 5.2016 6.37477 7.80289 4.65601 11.1274L4.37573 11.6694L4.96167 11.8374C6.51983 12.2859 8.66763 12.8591 10.947 13.3286L11.4568 13.4331L11.5417 12.9194C12.0613 9.76432 12.8947 6.59652 13.4978 4.5083L13.7712 3.56006L12.8455 3.8999ZM22.5515 4.5083C23.1548 6.5965 23.9889 9.76423 24.5085 12.9194L24.5925 13.4331L25.1023 13.3286C27.3817 12.859 29.5304 12.286 31.0886 11.8374L31.6746 11.6694L31.3943 11.1274C29.6755 7.80289 26.7531 5.20167 23.2048 3.8999L22.2781 3.56006L22.5515 4.5083Z" fill="#008000" stroke="#008000"/>
</g>
</svg>
